<?xml version="1.0" encoding="UTF-8"?>
<svg version="1.1" xmlns="http://www.w3.org/2000/svg" width="1920" height="1920">
<path d="M0 0 C17.29457636 0.65731203 34.56795478 1.55683047 51.84521484 2.56640625 C54.54497405 2.72272006 57.24474158 2.87888397 59.94451904 3.03488159 C66.44716002 3.41099803 72.94967403 3.78926525 79.45213585 4.16846538 C84.73374147 4.47646703 90.01538202 4.78386291 95.29704666 5.09085083 C110.30771202 5.96340611 125.31827497 6.83769566 140.3287143 7.71413076 C141.13305596 7.76109456 141.93739763 7.80805836 142.76611328 7.85644531 C143.57144507 7.90346734 144.37677686 7.95048936 145.20651264 7.9989363 C158.32401659 8.7647345 171.44176626 9.52623395 184.55962841 10.28586924 C198.06423976 11.06795291 211.56865778 11.85330254 225.07288134 12.64205456 C232.6412751 13.08403759 240.20974327 13.52464461 247.77842331 13.96170044 C254.2030912 14.33271723 260.62757544 14.70673476 267.05183677 15.08472848 C270.32900938 15.27746363 273.6062741 15.46828032 276.88372421 15.65624619 C280.42903051 15.85980494 283.97398067 16.06871706 287.51889038 16.27905273 C289.0847753 16.36704305 289.0847753 16.36704305 290.68229425 16.45681095 C291.62592596 16.51391963 292.56955767 16.57102831 293.54178429 16.62986755 C294.36036207 16.67754996 295.17893985 16.72523237 296.02232301 16.7743597 C298 17 298 17 300 18 C298.74313024 33.04271968 297.33523386 48.06458612 295.76782227 63.078125 C295.43048969 66.3173156 295.09896569 69.55707137 294.76757812 72.796875 C294.55243007 74.86982768 294.33694867 76.9427458 294.12109375 79.015625 C294.02316025 79.9779303 293.92522675 80.9402356 293.82432556 81.93170166 C293.68396629 83.26150055 293.68396629 83.26150055 293.54077148 84.61816406 C293.41991432 85.78318451 293.41991432 85.78318451 293.2966156 86.97174072 C293 89 293 89 292 92 C293.24015869 92.04318359 294.48031738 92.08636719 295.75805664 92.13085938 C314.78172337 92.83886549 333.7769257 94.00196591 352.77758789 95.15673828 C357.53112117 95.44559466 362.28489145 95.73032754 367.03874111 96.01392365 C370.74243626 96.23533288 374.44599762 96.45891819 378.14952278 96.68315125 C379.90321883 96.78906846 381.65695533 96.89431823 383.41073418 96.99885559 C385.85395961 97.14480874 388.29698852 97.29371405 390.73999023 97.44335938 C391.44603897 97.48494675 392.15208771 97.52653412 392.87953186 97.56938171 C397.94048067 97.88379215 402.96496271 98.40246292 408 99 C403.37058119 145.08393031 398.69522803 191.16282398 393.90625 237.23046875 C393.74466498 238.78498265 393.74466498 238.78498265 393.57981563 240.37090087 C392.35180707 252.183832 391.1224396 263.99662152 389.89254761 275.80935669 C387.46723118 299.10424881 385.047534 322.39972509 382.62890625 345.6953125 C382.44688656 347.44834006 382.44688656 347.44834006 382.2611897 349.23678231 C377.69840537 393.18273262 373.18009865 437.13311492 368.69041872 481.08658743 C367.23463627 495.33776687 365.77795181 509.58885412 364.3203125 523.83984375 C364.23435169 524.68028488 364.14839087 525.52072602 364.05982518 526.38663507 C359.45536863 571.40086922 354.80225731 616.4100729 350.14430666 661.41879845 C349.81286984 664.62142628 349.48145831 667.82405673 349.15005112 671.02668762 C344.01812072 720.61907062 338.87607162 770.21039939 333.724159 819.80071044 C333.13641345 825.45818632 332.54871312 831.1156669 331.96101379 836.77314758 C331.84480063 837.89186935 331.72858746 839.01059112 331.60885268 840.16321355 C330.43900684 851.42474861 329.26923024 862.68629086 328.09949446 873.94783735 C327.75018412 877.31072744 327.40085246 880.67361531 327.05151749 884.03650284 C320.65402615 945.62373108 314.29581405 1007.21479414 308 1068.8125 C307.65491373 1072.18860947 307.30981849 1075.56471802 306.96472168 1078.94082642 C306.88012562 1079.76843938 306.79552955 1080.59605234 306.70836997 1081.44874448 C305.78492766 1090.48277524 304.86133725 1099.51679086 303.9375 1108.55078125 C303.85596711 1109.34809355 303.77443422 1110.14540585 303.69043064 1110.96687913 C300.05059071 1146.55904611 296.38481873 1182.14851482 292.70001984 1217.7360546 C292.16038632 1222.94851729 291.62171761 1228.16107908 291.08349609 1233.37368774 C290.37564659 1240.22878214 289.66577561 1247.08366448 288.95440674 1253.93839455 C288.69608724 1256.4301596 288.43838225 1258.92198845 288.18133545 1261.41388512 C287.83228323 1264.79629078 287.48091012 1268.1784473 287.12890625 1271.56054688 C287.02825363 1272.54097363 286.92760101 1273.52140039 286.82389832 1274.53153706 C286.72933853 1275.43535712 286.63477875 1276.33917719 286.53735352 1277.27038574 C286.41699486 1278.43198841 286.41699486 1278.43198841 286.29420471 1279.6170578 C285.94775414 1282.42317085 285.46482483 1285.21105104 285 1288 C181.38 1288 77.76 1288 -29 1288 C-25.21565032 1260.96893088 -21.34619976 1233.9464385 -17 1207 C-56.27 1207 -95.54 1207 -136 1207 C-135.38236591 1198.35312268 -134.71112722 1189.97965247 -133.43701172 1181.44799805 C-133.28229904 1180.38349426 -133.12758636 1179.31899048 -132.96818542 1178.222229 C-132.46012773 1174.73467545 -131.94492081 1171.24821878 -131.4296875 1167.76171875 C-131.06627409 1165.27601338 -130.70333876 1162.79023808 -130.34085083 1160.30439758 C-129.48169461 1154.41989139 -128.61813977 1148.53604202 -127.75226986 1142.65252095 C-126.70078638 1135.50654124 -125.65485212 1128.35975137 -124.609375 1121.21289062 C-124.42365055 1119.94332582 -124.2379261 1118.67376102 -124.04657364 1117.36572456 C-123.67277832 1114.8105316 -123.29900024 1112.25533612 -122.92523956 1109.70013809 C-122.36927721 1105.90099866 -121.81259242 1102.10196562 -121.25579834 1098.302948 C-117.77574608 1074.54405116 -114.37438452 1050.77411009 -111 1027 C-113.04292613 1029.49661297 -115.08228505 1031.99611769 -117.12109375 1034.49609375 C-117.69033569 1035.19166382 -118.25957764 1035.88723389 -118.84606934 1036.60388184 C-122.70385065 1041.3387431 -126.42744674 1046.15488726 -130.0625 1051.0625 C-134.49939259 1057.04247657 -139.07401307 1062.88385826 -143.75512695 1068.67431641 C-148.02941766 1073.98313519 -152.0652484 1079.43348376 -156 1085 C-159.75955656 1083.74681448 -160.00249581 1082.72347315 -161.86328125 1079.3125 C-162.41306641 1078.31669922 -162.96285156 1077.32089844 -163.52929688 1076.29492188 C-164.41198242 1074.66393555 -164.41198242 1074.66393555 -165.3125 1073 C-166.57918223 1070.69778193 -167.84611618 1068.39570235 -169.11328125 1066.09375 C-169.76662582 1064.89984191 -170.41978329 1063.70583141 -171.07275391 1062.51171875 C-174.00820846 1057.1519795 -177.00712711 1051.82781333 -180 1046.5 C-181.16696952 1044.4168363 -182.33363513 1042.33350231 -183.5 1040.25 C-184.36625 1038.703125 -184.36625 1038.703125 -185.25 1037.125 C-190.5 1027.74999999 -190.5 1027.74999999 -192.25024414 1024.62451172 C-193.41603752 1022.54277268 -194.58189032 1020.46106691 -195.74780273 1018.37939453 C-198.6783206 1013.14694077 -201.60777916 1007.91389914 -204.53515625 1002.6796875 C-210.99579203 991.13079944 -217.47664102 979.5939027 -224.00219727 968.08154297 C-224.51322998 967.17936035 -225.0242627 966.27717773 -225.55078125 965.34765625 C-226.00106689 964.55367432 -226.45135254 963.75969238 -226.9152832 962.94165039 C-227.64018326 961.6440744 -228.33529201 960.32941598 -229 959 C-235.06843371 966.08878982 -240.81776296 973.33532929 -246.37133789 980.83251953 C-250.53382466 986.43212715 -254.85480105 991.88992457 -259.25537109 997.30395508 C-261.88001818 1000.48293926 -261.88001818 1000.48293926 -264 1004 C-267.72548963 1002.75817012 -267.9042787 1001.85851468 -269.6796875 998.4609375 C-270.18935059 997.50018311 -270.69901367 996.53942871 -271.22412109 995.54956055 C-271.76891113 994.50195557 -272.31370117 993.45435059 -272.875 992.375 C-274.05024363 990.15917951 -275.22737339 987.94435853 -276.40625 985.73046875 C-277.00566406 984.6017334 -277.60507812 983.47299805 -278.22265625 982.31005859 C-280.86349192 977.39186492 -283.61130646 972.53741907 -286.375 967.6875 C-291.70645506 958.30925833 -296.96577691 948.89304191 -302.18505859 939.4519043 C-306.33470145 931.95841448 -310.53842835 924.49653337 -314.75585938 917.04101562 C-315.35742859 915.97715637 -315.9589978 914.91329712 -316.57879639 913.81719971 C-318.05233323 911.21135458 -319.5260729 908.6056244 -321 906 C-322.22395894 939.42504655 -323.44691048 972.8501298 -324.66862671 1006.2752584 C-324.81496632 1010.27896483 -324.96131374 1014.28267098 -325.10766602 1018.28637695 C-325.13678523 1019.08298439 -325.16590445 1019.87959183 -325.19590607 1020.70033889 C-325.63056357 1032.59068829 -326.06574425 1044.48101846 -326.5012207 1056.37133789 C-327.1473505 1074.01396396 -327.79248126 1091.65662638 -328.43673342 1109.29932112 C-328.51958824 1111.56796682 -328.60247481 1113.83661137 -328.68536997 1116.1052556 C-329.80066171 1146.63036382 -330.9136516 1177.15548692 -331.95849609 1207.68310547 C-331.99423355 1208.7263562 -332.02997101 1209.76960694 -332.06679142 1210.84447134 C-332.39038658 1220.2990098 -332.71170516 1229.75361749 -333.02556103 1239.20848459 C-334.04531949 1269.89065849 -334.04531949 1269.89065849 -335 1285 C-351.99041378 1285.77779106 -368.97679136 1286.29029634 -385.98046875 1286.66430664 C-388.58856126 1286.7233755 -391.19664932 1286.78264147 -393.80473328 1286.84208679 C-400.08733564 1286.98490824 -406.36998976 1287.12530662 -412.65266699 1287.26479156 C-417.76400858 1287.37832518 -422.87532786 1287.4928197 -427.9866333 1287.60796928 C-429.08635849 1287.6327443 -429.08635849 1287.6327443 -430.20830035 1287.65801982 C-431.69853089 1287.69159758 -433.18876137 1287.72517806 -434.67899179 1287.75876122 C-447.78806729 1288.05408883 -460.89719314 1288.34711912 -474.00634766 1288.63891602 C-486.68315108 1288.92108941 -499.35990806 1289.20524992 -512.03662109 1289.49145508 C-525.90400696 1289.80454015 -539.77141789 1290.11647279 -553.6388731 1290.4264726 C-555.12054636 1290.45959647 -556.6022196 1290.49272109 -558.08389282 1290.52584648 C-559.17692234 1290.55028099 -559.17692234 1290.55028099 -560.29203326 1290.57520913 C-565.39289436 1290.68931017 -570.49373736 1290.80419924 -575.59457397 1290.91938972 C-582.46972242 1291.07461628 -589.34491231 1291.2278846 -596.22013283 1291.37988472 C-598.73226092 1291.43570379 -601.24437578 1291.49212187 -603.75647545 1291.54920578 C-616.50640602 1291.83854702 -629.24631773 1292.09267867 -642 1292 C-641.22957958 1275.16000458 -639.92968499 1258.36785531 -638.61352539 1241.56384277 C-638.31678795 1237.76860793 -638.02278177 1233.97316149 -637.72851562 1230.17773438 C-637.15495042 1222.78495177 -636.57845864 1215.3924015 -636 1208 C-637.25866379 1208.06597885 -638.51732758 1208.1319577 -639.81413269 1208.19993591 C-652.93307575 1208.86780312 -666.04317671 1209.26941687 -679.17578125 1209.53515625 C-681.2084351 1209.57832695 -683.24108374 1209.62174314 -685.27372742 1209.66539001 C-690.5456563 1209.77795196 -695.81764764 1209.88724802 -701.08966064 1209.99578857 C-706.50057194 1210.10779217 -711.91141524 1210.22298852 -717.32226562 1210.33789062 C-727.8814474 1210.56166223 -738.44069816 1210.78197266 -749 1211 C-750.30592888 1207.08221336 -749.83746329 1203.58597385 -749.52006531 1199.53788757 C-749.45605756 1198.65976414 -749.39204981 1197.7816407 -749.32610244 1196.87690747 C-749.10819175 1193.90795861 -748.88155442 1190.93973869 -748.6550293 1187.97143555 C-748.49626034 1185.83263066 -748.33803163 1183.69378561 -748.18029976 1181.55490398 C-747.74417736 1175.66175023 -747.30050812 1169.76918467 -746.85571504 1163.8766799 C-746.37958565 1157.55082234 -745.9105826 1151.22443639 -745.44084167 1144.89810181 C-744.62611295 1133.93769859 -743.80722781 1122.97761375 -742.98553467 1112.01773071 C-741.73035323 1095.27468635 -740.48308154 1078.53105844 -739.23799139 1061.78726093 C-739.07247125 1059.56138449 -738.90693427 1057.33550929 -738.74139166 1055.10963452 C-738.68658602 1054.37271998 -738.63178038 1053.63580543 -738.57531397 1052.87656015 C-738.52042294 1052.13849793 -738.46553191 1051.40043571 -738.40897751 1050.64000797 C-738.07469942 1046.14528834 -737.74043331 1041.65056782 -737.40621114 1037.15584403 C-736.72756116 1028.02959229 -736.04821864 1018.90339235 -735.36837602 1009.77722937 C-732.32621464 968.93941186 -729.30877447 928.09988549 -726.32421875 887.2578125 C-726.23141459 885.98790191 -726.13861043 884.71799132 -726.04299402 883.40959859 C-724.9296552 868.17349797 -723.81763645 852.93730114 -722.70603955 837.70107335 C-720.9353321 813.43205073 -719.16138322 789.1632648 -717.38671875 764.89453125 C-717.29483449 763.63791018 -717.20295024 762.38128911 -717.10828161 761.08658862 C-712.9989149 704.88877065 -708.84762833 648.69407977 -704.6875 592.5 C-703.29124266 573.63935428 -701.89520926 554.77869203 -700.5 535.91796875 C-700.41167475 534.72398956 -700.3233495 533.53001037 -700.23234773 532.29984999 C-695.53580605 468.80799561 -690.87525909 405.31349897 -686.21545476 341.81893992 C-685.42060288 330.98831353 -684.62561563 320.15769707 -683.83053589 309.3270874 C-683.60635253 306.27324043 -683.38216944 303.21939343 -683.15798664 300.16554642 C-683.07510036 299.03645922 -683.07510036 299.03645922 -682.99053961 297.88456218 C-679.4681358 249.9017071 -675.94591047 201.91883903 -672.43046665 153.93547344 C-671.25930645 137.95039232 -670.08692278 121.96540129 -668.91335964 105.98049641 C-668.21381683 96.4513301 -667.51548824 86.9220766 -666.81897372 77.39268845 C-666.36435063 71.17406716 -665.90831363 64.9555507 -665.45105249 58.73712283 C-665.1960513 55.26866959 -664.94168617 51.80017313 -664.68918037 48.33153725 C-664.42194337 44.66505724 -664.15221943 40.99876864 -663.88183594 37.33251953 C-663.80615985 36.28568906 -663.73048376 35.23885859 -663.65251446 34.16030598 C-663.25031869 28.74612409 -662.72718601 23.38046814 -662 18 C-659.28148581 17.0938286 -657.57117044 16.84994906 -654.76460361 16.78324795 C-653.46177192 16.74891081 -653.46177192 16.74891081 -652.13262039 16.71388 C-651.17761436 16.69344715 -650.22260833 16.67301431 -649.23866272 16.65196228 C-648.22427751 16.62660654 -647.20989231 16.6012508 -646.16476816 16.57512671 C-642.74803962 16.49088094 -639.33119177 16.41330889 -635.91430664 16.33569336 C-633.4698342 16.27682021 -631.02537127 16.21755064 -628.58091736 16.15791321 C-622.61161436 16.01339972 -616.64222318 15.87325994 -610.67276842 15.73520844 C-605.80278041 15.62248589 -600.93283912 15.50791453 -596.06292534 15.39203072 C-595.36878408 15.37551404 -594.67464282 15.35899736 -593.95946698 15.34198018 C-592.54875979 15.30840435 -591.13805272 15.27482387 -589.72734576 15.24123878 C-576.47253314 14.92588698 -563.21759324 14.61617826 -549.96260237 14.30842281 C-538.66547738 14.04600245 -527.36846789 13.77902992 -516.0715332 13.50854492 C-502.91428174 13.19352103 -489.75696775 12.88133868 -476.59954542 12.5735274 C-475.18402852 12.5404057 -473.76851168 12.50728109 -472.35299492 12.47415352 C-471.65686151 12.45786384 -470.9607281 12.44157417 -470.24349974 12.42479087 C-465.41374623 12.31159359 -460.58404069 12.19648137 -455.75435066 12.08061028 C-426.83310793 11.3877794 -397.930809 10.75243705 -369 11 C-366.74542539 20.29478343 -364.49144545 29.5897021 -362.24609375 38.88671875 C-360.87258123 44.57371948 -359.49807355 50.2604668 -358.11767578 55.94580078 C-357.00495428 60.52894849 -355.89666695 65.11314755 -354.79145813 69.69811249 C-354.36882077 71.44799806 -353.94458157 73.19749755 -353.51872253 74.94660187 C-352.922962 77.39471645 -352.33288888 79.84413637 -351.74414062 82.29394531 C-351.56647659 83.01827255 -351.38881256 83.74259979 -351.20576477 84.48887634 C-350.41673256 87.79672779 -350 90.57131804 -350 94 C-348.948125 93.93941406 -347.89625 93.87882812 -346.8125 93.81640625 C-318.58333902 92.29042267 -290.26733777 91.75670326 -262 92 C-260.09658058 96.33079977 -258.98606854 100.77919402 -257.90307617 105.36669922 C-257.70197455 106.20492816 -257.50087294 107.0431571 -257.29367733 107.90678692 C-256.62321444 110.70524879 -255.95812999 113.50496117 -255.29296875 116.3046875 C-254.81577168 118.30069763 -254.33821412 120.29662161 -253.86032104 122.29246521 C-252.83575699 126.5743251 -251.8134793 130.85672184 -250.79299927 135.13955688 C-249.17429597 141.93273018 -247.55050394 148.72468002 -245.92553711 155.51635742 C-245.65286923 156.65604823 -245.38020136 157.79573904 -245.09927082 158.96996593 C-244.54530632 161.28540099 -243.99132863 163.6008329 -243.43733788 165.91626167 C-242.59697026 169.42935376 -241.75708957 172.94256196 -240.91731262 176.45579529 C-236.09551558 196.62433158 -231.23537865 216.78348479 -226.36160278 236.93951416 C-224.204228 245.86161299 -222.04893745 254.78421517 -219.89453125 263.70703125 C-219.58285539 264.99788258 -219.58285539 264.99788258 -219.26488304 266.31481171 C-213.19452851 291.45987942 -207.17620142 316.6173966 -201.1619873 341.77593994 C-198.49973897 352.91240538 -195.8344736 364.04814676 -193.16796875 375.18359375 C-192.96824337 376.01765873 -192.76851799 376.85172371 -192.56274033 377.71106339 C-191.57363764 381.84156289 -190.58449719 385.97205335 -189.59533691 390.10253906 C-187.93546783 397.03380202 -186.27590121 403.96513739 -184.61632729 410.89647102 C-183.84115441 414.13402727 -183.06596229 417.37157891 -182.29077148 420.60913086 C-181.86051432 422.40608724 -181.43025716 424.20304362 -181 426 C-178.33423145 422.58674042 -176.63871383 419.13634001 -175.0234375 415.140625 C-174.74126877 414.45668671 -174.45910004 413.77274841 -174.16838074 413.06808472 C-173.5553087 411.58075215 -172.94476435 410.09237573 -172.3364563 408.60308838 C-170.67003689 404.52465844 -168.98402899 400.45431884 -167.30078125 396.3828125 C-166.94900314 395.5305307 -166.59722504 394.6782489 -166.23478699 393.80014038 C-162.41061336 384.54670628 -158.48983752 375.33500521 -154.5625 366.125 C-153.12312492 362.74633759 -151.68443192 359.36738521 -150.24609375 355.98828125 C-149.8909671 355.15403122 -149.53584045 354.31978119 -149.16995239 353.46025085 C-145.46598061 344.75372282 -141.79284529 336.03429624 -138.125 327.3125 C-136.80081259 324.16404932 -135.47660563 321.01560686 -134.15234375 317.8671875 C-133.81811401 317.07252579 -133.48388428 316.27786407 -133.13952637 315.4591217 C-128.99803385 305.61470635 -124.84272489 295.77612498 -120.6875 285.9375 C-120.29048889 284.99742096 -119.89347778 284.05734192 -119.48443604 283.08877563 C-117.46418163 278.30506786 -115.44379916 273.5214142 -113.42333984 268.73779297 C-109.84293697 260.26067587 -106.26374815 251.78304617 -102.68447876 243.30545044 C-100.70636995 238.62027885 -98.72818088 233.93514116 -96.75 229.25 C-95.95833295 227.37500016 -95.16666628 225.50000016 -94.375 223.625 C-80.125 189.875 -65.875 156.125 -51.625 122.375 C-51.23314011 121.44691025 -50.84128021 120.5188205 -50.43754578 119.56260681 C-49.64572806 117.68725013 -48.8539088 115.81189409 -48.06208801 113.9365387 C-46.08521988 109.25450131 -44.10837826 104.57245273 -42.1315918 99.89038086 C-38.54178605 91.38790272 -34.9517738 82.88551205 -31.36079407 74.38352966 C-20.89120631 49.59573743 -10.43603029 24.80193985 0 0 Z " fill="#FBC01F" transform="translate(1131,314)"/>
<path d="M0 0 C20.2794687 0.70615184 40.52466405 1.92585924 60.77758789 3.15673828 C65.53112117 3.44559466 70.28489145 3.73032754 75.03874111 4.01392365 C78.74243626 4.23533288 82.44599762 4.45891819 86.14952278 4.68315125 C87.90321883 4.78906846 89.65695533 4.89431823 91.41073418 4.99885559 C93.85395961 5.14480874 96.29698852 5.29371405 98.73999023 5.44335938 C99.79906334 5.50574043 99.79906334 5.50574043 100.87953186 5.56938171 C105.94048067 5.88379215 110.96496271 6.40246292 116 7 C111.37058119 53.08393031 106.69522803 99.16282398 101.90625 145.23046875 C101.79852666 146.26681135 101.69080331 147.30315395 101.57981563 148.37090087 C100.35180707 160.183832 99.1224396 171.99662152 97.89254761 183.80935669 C95.46723118 207.10424881 93.047534 230.39972509 90.62890625 253.6953125 C90.44688656 255.44834006 90.44688656 255.44834006 90.2611897 257.23678231 C85.69840537 301.18273262 81.18009865 345.13311492 76.69041872 389.08658743 C75.23463627 403.33776687 73.77795181 417.58885412 72.3203125 431.83984375 C72.19137128 433.10050545 72.19137128 433.10050545 72.05982518 434.38663507 C67.45536863 479.40086922 62.80225731 524.4100729 58.14430666 569.41879845 C57.81286984 572.62142628 57.48145831 575.82405673 57.15005112 579.02668762 C52.01812072 628.61907062 46.87607162 678.21039939 41.724159 727.80071044 C41.13641345 733.45818632 40.54871312 739.1156669 39.96101379 744.77314758 C39.84480063 745.89186935 39.72858746 747.01059112 39.60885268 748.16321355 C38.43900684 759.42474861 37.26923024 770.68629086 36.09949446 781.94783735 C35.75018412 785.31072744 35.40085246 788.67361531 35.05151749 792.03650284 C28.65402615 853.62373108 22.29581405 915.21479414 16 976.8125 C15.65491373 980.18860947 15.30981849 983.56471802 14.96472168 986.94082642 C14.88012562 987.76843938 14.79552955 988.59605234 14.70836997 989.44874448 C13.78492766 998.48277524 12.86133725 1007.51679086 11.9375 1016.55078125 C11.81520067 1017.7467497 11.81520067 1017.7467497 11.69043064 1018.96687913 C8.05059071 1054.55904611 4.38481873 1090.14851482 0.70001984 1125.7360546 C0.16038632 1130.94851729 -0.37828239 1136.16107908 -0.91650391 1141.37368774 C-1.62435341 1148.22878214 -2.33422439 1155.08366448 -3.04559326 1161.93839455 C-3.30391276 1164.4301596 -3.56161775 1166.92198845 -3.81866455 1169.41388512 C-4.16771677 1172.79629078 -4.51908988 1176.1784473 -4.87109375 1179.56054688 C-4.97174637 1180.54097363 -5.07239899 1181.52140039 -5.17610168 1182.53153706 C-5.31794136 1183.88726716 -5.31794136 1183.88726716 -5.46264648 1185.27038574 C-5.54288559 1186.04478752 -5.62312469 1186.8191893 -5.70579529 1187.6170578 C-6.05224586 1190.42317085 -6.53517517 1193.21105104 -7 1196 C-110.62 1196 -214.24 1196 -321 1196 C-309.76744186 1115.76744186 -309.76744186 1115.76744186 -308 1114 C-305.5084728 1113.90227688 -303.04469492 1113.87004182 -300.55271912 1113.87974548 C-299.76373909 1113.87889106 -298.97475906 1113.87803663 -298.16187054 1113.87715632 C-295.49778373 1113.87549911 -292.83375882 1113.88102679 -290.16967773 1113.88647461 C-288.26807659 1113.88675646 -286.36647534 1113.8865988 -284.46487427 1113.8860321 C-279.28533716 1113.88574403 -274.10582299 1113.89164237 -268.92629123 1113.89860606 C-263.51971473 1113.90483794 -258.11313776 1113.90544327 -252.70655823 1113.90663147 C-242.46074709 1113.90974528 -232.21494657 1113.91795933 -221.96914011 1113.92798096 C-210.30791337 1113.93914057 -198.64668614 1113.94465216 -186.98545539 1113.94967639 C-162.9902977 1113.9601419 -138.99514944 1113.9777423 -115 1114 C-115.00403619 1113.11728456 -115.00807238 1112.23456911 -115.01223087 1111.32510471 C-115.01537013 1110.16188159 -115.01850939 1108.99865847 -115.02174377 1107.80018616 C-115.02779806 1106.07392549 -115.02779806 1106.07392549 -115.03397465 1104.31279087 C-114.99017094 1100.04159025 -114.63416838 1095.86150132 -114.15234375 1091.62109375 C-114.06050308 1090.76000504 -113.96866241 1089.89891632 -113.8740387 1089.01173401 C-113.6735832 1087.13957909 -113.47003339 1085.26775336 -113.26367188 1083.39624023 C-112.8058761 1079.2435254 -112.36357963 1075.08918957 -111.91970825 1070.93496704 C-111.67562241 1068.65279638 -111.43070717 1066.3707143 -111.18502808 1064.0887146 C-109.72691292 1050.53033712 -108.3406968 1036.96465702 -106.95095825 1023.3991394 C-106.19892512 1016.06011166 -105.44307456 1008.72147633 -104.6875 1001.3828125 C-104.61408449 1000.66961035 -104.54066898 999.9564082 -104.46502876 999.22159386 C-103.1491617 986.43879258 -101.82977508 973.65636285 -100.5 960.875 C-100.40264557 959.93881836 -100.30529114 959.00263672 -100.20498657 958.03808594 C-98.96121513 946.08849026 -97.69683445 934.14120272 -96.41796875 922.1953125 C-95.84061543 916.79693156 -95.26376556 911.39849716 -94.6875 906 C-94.61445648 905.31596478 -94.54141296 904.63192955 -94.46615601 903.92716599 C-91.7793518 878.75490365 -89.24247926 853.56902978 -86.74631119 828.37722397 C-84.26611636 803.35075937 -81.67223238 778.34022898 -78.94100952 753.33996582 C-76.51238797 731.08830408 -74.25944787 708.82408548 -72.12841797 686.54223633 C-70.8816799 673.5683843 -69.52976941 660.61146814 -68.0703125 647.66015625 C-66.08853356 630.06773489 -64.30438155 612.45852452 -62.56536865 594.84063721 C-61.69884802 586.06248016 -60.82364594 577.28518478 -59.94921875 568.5078125 C-59.82057812 567.21564127 -59.82057812 567.21564127 -59.68933868 565.89736557 C-58.285886 551.80292531 -56.85297604 537.71184314 -55.375 523.625 C-55.23034302 522.24589447 -55.23034302 522.24589447 -55.08276367 520.83892822 C-54.69410023 517.13564867 -54.30511571 513.43240311 -53.91555786 509.72921753 C-52.61559721 497.36276705 -51.34046708 484.99373873 -50.0625 472.625 C-49.68212955 468.94488764 -49.30172141 465.26477919 -48.92131042 461.58467102 C-48.66592772 459.11404136 -48.41056689 456.64340943 -48.15522766 454.17277527 C-47.25844344 445.49655773 -46.36002748 436.82051013 -45.4609375 428.14453125 C-45.07944366 424.46218315 -44.69799581 420.7798303 -44.31658936 417.09747314 C-44.064065 414.65944012 -43.81150158 412.22141114 -43.55889893 409.78338623 C-42.25728147 397.21739042 -40.96090774 384.6509203 -39.6875 372.08203125 C-39.58288452 371.04989502 -39.47826904 370.01775879 -39.3704834 368.9543457 C-39.26691528 367.93252197 -39.16334717 366.91069824 -39.05664062 365.85791016 C-38.85026732 363.8219394 -38.64388716 361.78596935 -38.4375 359.75 C-38.33638916 358.75200378 -38.23527832 357.75400757 -38.13110352 356.72576904 C-36.53980896 341.0411978 -34.84911935 325.36902523 -33.12185669 309.69891357 C-31.41308916 294.16323963 -29.86062609 278.6168347 -28.43139648 263.05297852 C-27.2286198 250.00903654 -25.84211731 236.98748295 -24.42962646 223.96472168 C-20.37718948 186.56761957 -16.33728754 149.16988814 -12.7253418 111.72729492 C-11.16627212 95.57579292 -9.51154296 79.4354912 -7.81054688 63.29833984 C-7.60541231 61.35124292 -7.4003337 59.40414011 -7.1953125 57.45703125 C-7.04494537 56.02934418 -7.04494537 56.02934418 -6.89154053 54.57281494 C-6.19262351 47.90891705 -5.52351129 41.2424337 -4.8671875 34.57421875 C-4.60002049 31.88266671 -4.33250585 29.19114938 -4.06497192 26.49963379 C-3.89897319 24.81504661 -3.7352312 23.13023524 -3.57394409 21.44519043 C-3.35313269 19.13864559 -3.12459308 16.83298148 -2.89453125 14.52734375 C-2.76925049 13.23562256 -2.64396973 11.94390137 -2.51489258 10.61303711 C-1.98450331 6.89125865 -1.11601022 3.58121821 0 0 Z " fill="#EE1B24" transform="translate(1423,406)"/>
<path d="M0 0 C0.66 0 1.32 0 2 0 C2.29390625 0.62261719 2.5878125 1.24523438 2.890625 1.88671875 C6.60266933 9.53481008 10.74050756 16.88268791 14.98364258 24.24536133 C19.20660956 31.58288652 23.33704454 38.96838783 27.4375 46.375 C32.11102668 54.8116955 36.80813426 63.23357357 41.5625 71.625 C47.82403529 82.67657147 54.03369137 93.75669409 60.23388672 104.84277344 C63.15398137 110.06293711 66.07713566 115.28138679 69 120.5 C70.16668154 122.58332501 71.3333482 124.66665834 72.5 126.75 C73.36625 128.296875 73.36625 128.296875 74.25 129.875 C79.5 139.25 79.5 139.25 81.25317383 142.38085938 C82.4090426 144.44478382 83.56512655 146.50858778 84.72143555 148.57226562 C87.47117521 153.48037802 90.21858964 158.38975401 92.95852661 163.30334473 C93.94253396 165.0677551 94.92721607 166.83178716 95.91210938 168.59570312 C97.15826079 170.82801753 98.40309905 173.0610656 99.64648438 175.29492188 C100.20271484 176.29072266 100.75894531 177.28652344 101.33203125 178.3125 C101.82421143 179.19550781 102.3163916 180.07851562 102.82348633 180.98828125 C103.84433947 182.92881076 103.84433947 182.92881076 105 184 C105.27473076 188.38279836 105.1864698 192.78463174 105.17895508 197.17529297 C105.17864591 197.88870275 105.17833675 198.60211254 105.17801821 199.3371408 C105.14201515 222.02260603 104.14094379 244.6918508 103.28143287 267.35743952 C103.05937117 273.2465995 102.84323697 279.1359751 102.62700317 285.02535151 C102.19584722 296.7638207 101.75950026 308.50209058 101.31958008 320.24023438 C100.69592957 336.88133511 100.07845213 353.52266076 99.46289062 370.1640625 C99.43789432 370.83980117 99.41289801 371.51553985 99.38714424 372.21175545 C99.31153549 374.25576244 99.23593007 376.29976955 99.160326 378.3437767 C99.12298326 379.35335324 99.12298326 379.35335324 99.08488611 380.38332526 C98.95967444 383.76854407 98.83448034 387.15376352 98.70931542 390.53898406 C98.46131368 397.24535446 98.21287597 403.95170831 97.96349716 410.65802765 C96.97147389 437.33583128 95.98638118 464.01371569 95.07275391 490.69433594 C95.03744163 491.72483338 95.00212935 492.75533082 94.965747 493.81705546 C94.64007835 503.3318943 94.31721944 512.84682053 94.00172281 522.36200237 C93.8909763 525.69425961 93.77881838 529.02646857 93.66645598 532.35867167 C93.593152 534.55056494 93.52202055 536.74252032 93.45105171 538.9344902 C93.11742152 548.96598616 92.58993612 558.98066836 92 569 C75.00958622 569.77779106 58.02320864 570.29029634 41.01953125 570.66430664 C38.41143874 570.7233755 35.80335068 570.78264147 33.19526672 570.84208679 C26.91266436 570.98490824 20.63001024 571.12530662 14.34733301 571.26479156 C9.23599142 571.37832518 4.12467214 571.4928197 -0.9866333 571.60796928 C-2.08635849 571.6327443 -2.08635849 571.6327443 -3.20830035 571.65801982 C-4.69853089 571.69159758 -6.18876137 571.72517806 -7.67899179 571.75876122 C-20.78806729 572.05408883 -33.89719314 572.34711912 -47.00634766 572.63891602 C-59.68315108 572.92108941 -72.35990806 573.20524992 -85.03662109 573.49145508 C-98.90400696 573.80454015 -112.77141789 574.11647279 -126.6388731 574.4264726 C-128.12054636 574.45959647 -129.6022196 574.49272109 -131.08389282 574.52584648 C-131.81257917 574.54213616 -132.54126551 574.55842583 -133.29203326 574.57520913 C-138.39289436 574.68931017 -143.49373736 574.80419924 -148.59457397 574.91938972 C-155.46972242 575.07461628 -162.34491231 575.2278846 -169.22013283 575.37988472 C-171.73226092 575.43570379 -174.24437578 575.49212187 -176.75647545 575.54920578 C-189.50640602 575.83854702 -202.24631773 576.09267867 -215 576 C-214.25636625 559.92644861 -213.07835157 543.89226737 -211.84326172 527.85058594 C-211.55277827 524.07492157 -211.2687121 520.2988018 -210.98607635 516.52254295 C-210.76614627 513.59707669 -210.54209855 510.67193679 -210.31684875 507.74687576 C-210.21011628 506.35227268 -210.10487199 504.95755487 -210.00114441 503.56272507 C-209.85730099 501.63442544 -209.70713998 499.70660016 -209.55664062 497.77880859 C-209.47305298 496.68361908 -209.38946533 495.58842957 -209.30334473 494.46005249 C-209 492 -209 492 -208 491 C-206.16651799 490.85172983 -204.32746542 490.77202038 -202.48876953 490.71875 C-201.29564651 490.68197647 -200.1025235 490.64520294 -198.87324524 490.60731506 C-196.89798103 490.55419411 -196.89798103 490.55419411 -194.8828125 490.5 C-193.49858114 490.45964533 -192.11435988 490.41894268 -190.73014832 490.37791443 C-186.97787384 490.26823432 -183.22544213 490.165275 -179.47293472 490.06391525 C-177.12720726 490.00006009 -174.78154027 489.93431587 -172.43588257 489.86795044 C-148.2716608 489.18545573 -124.1084694 488.68894698 -99.93725586 488.32641602 C-87.01600766 488.13114527 -74.10300716 487.86965093 -61.1875 487.4375 C-46.11979216 486.93477411 -31.07440906 486.89196951 -16 487 C-16.02356567 485.62739014 -16.02356567 485.62739014 -16.04760742 484.22705078 C-16.46888336 456.65557318 -15.51655736 429.1935572 -14.31587696 401.65672779 C-14.14157231 397.65271804 -13.96865552 393.64865007 -13.796875 389.64453125 C-13.76249014 388.8439926 -13.72810528 388.04345394 -13.69267845 387.21865654 C-12.78753394 365.99220832 -12.22828215 344.75585178 -11.70276642 323.51708508 C-11.63069824 320.62529773 -11.55601133 317.73358083 -11.48104095 314.84186745 C-11.4314843 312.87973568 -11.38646366 310.91749096 -11.34161377 308.95524597 C-11.19675593 303.30850196 -10.92513538 297.76857471 -10.22537231 292.16447449 C-9.78909631 287.97448215 -9.78135245 283.76779568 -9.71875 279.55859375 C-9.69113586 278.10792259 -9.69113586 278.10792259 -9.66296387 276.62794495 C-9.58506982 272.53046609 -9.51676266 268.43284169 -9.44775391 264.33520508 C-9.39568201 261.32626143 -9.33858139 258.31744106 -9.28125 255.30859375 C-9.26767456 254.39379745 -9.25409912 253.47900116 -9.2401123 252.53648376 C-9.13920555 247.27744873 -8.70581622 242.21125347 -8 237 C-7.87772901 235.21005354 -7.78201658 233.41800191 -7.71875 231.625 C-7.66364258 230.06422729 -7.66364258 230.06422729 -7.60742188 228.47192383 C-7.57197266 227.32618896 -7.53652344 226.1804541 -7.5 225 C-7.45939453 223.76338623 -7.41878906 222.52677246 -7.37695312 221.25268555 C-7.08300587 211.82237322 -6.90873896 202.39047271 -6.75 192.95703125 C-6.72901245 191.71823212 -6.7080249 190.47943298 -6.68640137 189.20309448 C-6.58133409 182.92259158 -6.48266469 176.64206369 -6.39257812 170.36132812 C-6.35553267 167.99739483 -6.31842581 165.6334625 -6.28125 163.26953125 C-6.26771484 162.19645218 -6.25417969 161.12337311 -6.24023438 160.01777649 C-6.14406346 154.13849138 -5.82158697 148.34109717 -5.24179077 142.48976135 C-4.61482801 136.03381749 -4.38093128 129.54001418 -4.0625 123.0625 C-4.02053497 122.21850647 -3.97856995 121.37451294 -3.93533325 120.50494385 C-2.71098679 95.48678637 -2.09915375 70.44358597 -1.40813637 45.40628624 C-0.99004765 30.26917692 -0.50263594 15.13451661 0 0 Z " fill="#EE1B24" transform="translate(704,1030)"/>
<path d="M0 0 C1.90341942 4.33079977 3.01393146 8.77919402 4.09692383 13.36669922 C4.39857625 14.62404263 4.39857625 14.62404263 4.70632267 15.90678692 C5.37678556 18.70524879 6.04187001 21.50496117 6.70703125 24.3046875 C7.18422832 26.30069763 7.66178588 28.29662161 8.13967896 30.29246521 C9.16424301 34.5743251 10.1865207 38.85672184 11.20700073 43.13955688 C12.82570403 49.93273018 14.44949606 56.72468002 16.07446289 63.51635742 C16.34713077 64.65604823 16.61979864 65.79573904 16.90072918 66.96996593 C17.45469368 69.28540099 18.00867137 71.6008329 18.56266212 73.91626167 C19.40302974 77.42935376 20.24291043 80.94256196 21.08268738 84.45579529 C25.90448442 104.62433158 30.76462135 124.78348479 35.63839722 144.93951416 C37.795772 153.86161299 39.95106255 162.78421517 42.10546875 171.70703125 C42.31325266 172.5675988 42.52103657 173.42816635 42.73511696 174.31481171 C47.78218694 195.2211551 52.79892673 216.13476556 57.79248047 237.05395508 C58.46963131 239.89015947 59.14689364 242.72633722 59.82421875 245.5625 C60.07479286 246.61192307 60.07479286 246.61192307 60.33042908 247.68254662 C62.73592607 257.75371676 65.16388899 267.81928442 67.60568237 277.88171387 C69.01395543 283.68522707 70.41710702 289.48997518 71.81917381 295.29499054 C72.96348295 300.03067417 74.11459892 304.76463374 75.27088642 309.49740601 C75.98018194 312.40784053 76.68283833 315.31984801 77.38367271 318.23233032 C77.70923488 319.57927207 78.03755609 320.92555048 78.3688755 322.27108765 C78.82304654 324.11707444 79.26637648 325.96571825 79.70922852 327.81445312 C79.95995621 328.84606567 80.2106839 329.87767822 80.4690094 330.94055176 C81.35502528 336.04557571 81.55714386 340.5963492 79.46557617 345.39501953 C79.12574203 346.19198746 78.7859079 346.98895538 78.43577576 347.81007385 C78.05864944 348.65907761 77.68152313 349.50808136 77.29296875 350.3828125 C76.9008168 351.29348984 76.50866486 352.20416718 76.10462952 353.1424408 C74.81030458 356.14169984 73.49875856 359.13311052 72.1875 362.125 C71.27494709 364.23302839 70.3638356 366.3416813 69.45410156 368.45092773 C67.5713854 372.81446118 65.68351535 377.17571034 63.79248047 381.53564453 C59.9448435 390.4234221 56.18152937 399.34647983 52.42437744 408.27279663 C51.25415385 411.05263263 50.0821963 413.83173113 48.90966797 416.6105957 C41.26231272 434.73584295 33.62940739 452.86719177 26 471 C25.34 471 24.68 471 24 471 C20.45467825 456.93805318 16.98802593 442.86149982 13.65185547 428.74853516 C12.46557033 423.74658831 11.26345673 418.74844073 10.0625 413.75 C9.81113281 412.70336182 9.55976562 411.65672363 9.30078125 410.57836914 C8.78928606 408.44871586 8.27772982 406.31907725 7.76611328 404.18945312 C6.50994607 398.95982648 5.2550285 393.72990001 4 388.5 C3.50000616 386.41666519 3.00000615 384.33333186 2.5 382.25 C-0.5 369.75000001 -0.5 369.75000001 -1.24975586 366.62597656 C-1.75054505 364.53938211 -2.25135891 362.45279359 -2.75219727 360.36621094 C-3.99032354 355.20782058 -5.22804262 350.04933325 -6.46484375 344.890625 C-9.13433939 333.7582602 -11.81216693 322.62795258 -14.5 311.5 C-17.92441785 297.32249773 -21.32931596 283.14036342 -24.72949219 268.95703125 C-27.64364223 256.8024188 -30.56537821 244.64968758 -33.5 232.5 C-36.92441785 218.32249773 -40.32931596 204.14036342 -43.72949219 189.95703125 C-48.47764437 170.15298929 -53.24341744 150.35320709 -58.046875 130.5625 C-58.21837067 129.85589233 -58.38986633 129.14928467 -58.56655884 128.42126465 C-58.73811493 127.71441528 -58.90967102 127.00756592 -59.08642578 126.27929688 C-59.4326228 124.85286594 -59.77881421 123.42643365 -60.125 122 C-60.29642517 121.29367432 -60.46785034 120.58734863 -60.64447021 119.85961914 C-62.8069627 110.94731151 -64.95248763 102.03127528 -67.06689453 93.10742188 C-68.84288902 85.6267624 -70.65559363 78.15508711 -72.4697876 70.68362427 C-75.67978167 57.46359975 -78.8863268 44.24311344 -82 31 C-82.26087402 29.89350098 -82.52174805 28.78700195 -82.79052734 27.64697266 C-83.63519851 24.05724206 -84.47456878 20.46630932 -85.3125 16.875 C-85.57949707 15.74070557 -85.84649414 14.60641113 -86.12158203 13.43774414 C-86.36634277 12.38321045 -86.61110352 11.32867676 -86.86328125 10.2421875 C-87.08282471 9.3022998 -87.30236816 8.36241211 -87.52856445 7.39404297 C-88 5 -88 5 -88 2 C-58.71603122 0.31330082 -29.32900077 -0.25243446 0 0 Z " fill="#EE1B24" transform="translate(869,406)"/>
<path d="M0 0 C0.66 0 1.32 0 2 0 C1.81824219 1.2375 1.63648438 2.475 1.44921875 3.75 C0.20235131 12.32032572 -1.00426094 20.88889244 -2.03027344 29.48876953 C-3.59888992 42.62204438 -5.65549436 55.64955434 -7.81640625 68.6953125 C-9.42938404 78.5154816 -10.83389797 88.3538744 -11.98828125 98.23828125 C-13.35080816 109.84438394 -15.18366431 121.33433758 -17.16113281 132.85009766 C-18.65540641 141.6523383 -19.86624993 150.45220653 -20.90844727 159.31787109 C-21.84253093 167.11560939 -23.10643004 174.8296308 -24.44726562 182.56640625 C-26.07467877 192.10812133 -27.32496296 201.68968563 -28.57006836 211.28759766 C-29.51998889 218.55708296 -30.54561346 225.7902695 -31.86669922 233.00170898 C-32.71334174 237.77728457 -33.29007163 242.54655723 -33.79296875 247.37109375 C-34.01703428 249.38965413 -34.24391437 251.40787933 -34.47167969 253.42602539 C-34.68090054 255.37599215 -34.85470944 257.32965734 -35.02734375 259.28320312 C-36.08262399 268.57064634 -38.97667191 273.95548549 -45 281 C-46.12419906 282.45424205 -47.24185862 283.91357326 -48.3515625 285.37890625 C-49.44097697 286.77479047 -50.53215894 288.16929684 -51.625 289.5625 C-52.21909668 290.32353027 -52.81319336 291.08456055 -53.42529297 291.86865234 C-55.28195782 294.24700045 -57.14079248 296.62363923 -59 299 C-67.79120702 310.24296643 -76.48162744 321.54856144 -85 333 C-88.75955656 331.74681448 -89.00249581 330.72347315 -90.86328125 327.3125 C-91.41306641 326.31669922 -91.96285156 325.32089844 -92.52929688 324.29492188 C-93.11775391 323.20759766 -93.70621094 322.12027344 -94.3125 321 C-95.57918223 318.69778193 -96.84611618 316.39570235 -98.11328125 314.09375 C-98.76662582 312.89984191 -99.41978329 311.70583141 -100.07275391 310.51171875 C-103.00820846 305.1519795 -106.00712711 299.82781333 -109 294.5 C-110.16696952 292.4168363 -111.33363513 290.33350231 -112.5 288.25 C-113.0775 287.21875 -113.655 286.1875 -114.25 285.125 C-119.5 275.75 -119.5 275.75 -121.25024414 272.62451172 C-122.41603752 270.54277268 -123.58189032 268.46106691 -124.74780273 266.37939453 C-127.6783206 261.14694077 -130.60777916 255.91389914 -133.53515625 250.6796875 C-134.11885986 249.63651367 -134.70256348 248.59333984 -135.30395508 247.51855469 C-136.46733335 245.43891306 -137.62994333 243.35884143 -138.79174805 241.27832031 C-141.74359881 235.99918542 -144.71898299 230.7353222 -147.734375 225.4921875 C-148.33499756 224.44369629 -148.93562012 223.39520508 -149.55444336 222.31494141 C-150.69780394 220.32164204 -151.84676305 218.33153999 -153.00219727 216.34521484 C-153.51322998 215.4527002 -154.0242627 214.56018555 -154.55078125 213.640625 C-155.00106689 212.86235352 -155.45135254 212.08408203 -155.9152832 211.28222656 C-157.101801 208.78581235 -157.75268203 206.75602708 -158 204 C-157.21826172 202.2175293 -157.21826172 202.2175293 -155.9296875 200.57421875 C-155.21304932 199.63896362 -155.21304932 199.63896362 -154.48193359 198.68481445 C-153.95164551 198.02570068 -153.42135742 197.36658691 -152.875 196.6875 C-152.33311035 195.99035889 -151.7912207 195.29321777 -151.23291016 194.57495117 C-149.50725203 192.36774283 -147.75826588 190.18129998 -146 188 C-145.443125 187.3080957 -144.88625 186.61619141 -144.3125 185.90332031 C-141.5828192 182.52179947 -138.83622218 179.1545384 -136.08203125 175.79296875 C-132.51413429 171.42391375 -129.0819756 166.96109322 -125.66015625 162.4765625 C-122.46934006 158.29498499 -119.2330289 154.14896726 -116 150 C-111.92079982 144.76265692 -107.85193157 139.5180784 -103.8125 134.25 C-100.03802083 129.33397103 -96.22271864 124.45238278 -92.38818359 119.58325195 C-84.53226527 109.60237211 -76.73638094 99.57380967 -69 89.5 C-60.81666621 78.84419754 -52.56251428 68.24281349 -44.25 57.6875 C-40.45958798 52.87396378 -36.70640632 48.03367412 -32.97729492 43.17236328 C-29.35654738 38.45542612 -25.71277014 33.75662019 -22.0625 29.0625 C-21.46928955 28.299375 -20.8760791 27.53625 -20.26489258 26.75 C-17.45559795 23.14008139 -14.6389182 19.53651759 -11.80078125 15.94921875 C-11.30505615 15.32200928 -10.80933105 14.6947998 -10.29858398 14.04858398 C-9.38480975 12.89410366 -8.4691205 11.74113503 -7.55102539 10.59008789 C-5.50213462 8.00178297 -3.58725963 5.39414883 -1.8203125 2.609375 C-1.21960937 1.74828125 -0.61890625 0.8871875 0 0 Z " fill="#EE1B24" transform="translate(1060,1066)"/>
<path d="M0 0 C0.66 0 1.32 0 2 0 C1.67 2.64 1.34 5.28 1 8 C0.34 7.34 -0.32 6.68 -1 6 C-2.65 7.32 -4.3 8.64 -6 10 C-4.34643078 6.41726669 -2.32019297 3.19026533 0 0 Z " fill="#F03A24" transform="translate(1060,1066)"/>
</svg>
